<?xml version="1.0" encoding="UTF-8" standalone="no"?>
<svg
   version="1.1"
   width="2000"
   height="2000"
   id="svg34"
   sodipodi:docname="UTRC Logo 2.svg"
   inkscape:version="1.4.2 (f4327f4, 2025-05-13)"
   xmlns:inkscape="http://www.inkscape.org/namespaces/inkscape"
   xmlns:sodipodi="http://sodipodi.sourceforge.net/DTD/sodipodi-0.dtd"
   xmlns="http://www.w3.org/2000/svg"
   xmlns:svg="http://www.w3.org/2000/svg">
  <defs
     id="defs34" />
  <sodipodi:namedview
     id="namedview34"
     pagecolor="#ffffff"
     bordercolor="#000000"
     borderopacity="0.25"
     inkscape:showpageshadow="2"
     inkscape:pageopacity="0.0"
     inkscape:pagecheckerboard="0"
     inkscape:deskcolor="#d1d1d1"
     showgrid="false"
     inkscape:zoom="0.42956737"
     inkscape:cx="463.25679"
     inkscape:cy="1186.0771"
     inkscape:window-width="2560"
     inkscape:window-height="1417"
     inkscape:window-x="2248"
     inkscape:window-y="-8"
     inkscape:window-maximized="1"
     inkscape:current-layer="svg34" />
  <g
     id="g1"
     style="fill:#ea3131;fill-opacity:1"
     transform="matrix(4.2584267,0,0,4.2584267,-3238.9996,-3407.4991)">
    <path
       id="path2"
       d="m -16.576172,-4.1210938 c -8.55573,0.1237105 -16.171188,4.22073266 -23.58789,12.046875 -1.523015,1.6529736 -3.050723,3.3011728 -4.59375,4.9355468 C -53.50986,22.090061 -62.134813,31.418058 -70.5,41 c -1.155462,1.343055 -2.323108,2.675684 -3.5,4 L -76.433594,47.507812 -78.9375,50.125 c -2.79331,2.844606 -3.980106,4.046988 -4.378906,8.054688 0.38547,3.435916 0.98658,4.449258 3.285156,7.035156 4.347203,4.675927 8.579867,9.378087 12.59375,14.347656 2.181941,2.70346 4.375624,5.367876 6.683594,7.964844 3.058011,3.354802 6.109149,6.693574 9.003906,10.191406 2.952509,3.64963 5.880671,7.30326 9,10.8125 3.067547,3.36578 6.126578,6.71745 9.035156,10.22266 l 2.277344,2.80859 c 1.479327,1.81237 2.958496,3.62487 4.4375,5.4375 l 2.167969,2.69531 2.082031,2.49219 c 3.624668,4.96724 6.100585,5.42415 11.410156,2.86719 l 2.8320315,-1.32031 3.1367187,-1.44922 L -2.125,130.75 C 17.570914,120.13285 18.523814,118.83764 14.25,113.45703 L 12,110.8125 C 8.7868196,107.00904 5.479478,103.30393 2.125,99.625 -0.71381615,96.582684 -2.9595327,93.631775 -5,90 l 3,-1 c 4.1744266,-1.440731 6.6573868,-0.610271 10.6210938,1.197266 1.3989432,0.669965 2.8038052,1.330153 4.2128902,1.978515 l 2.142578,0.980469 c 2.335589,1.08216 4.65748,2.099333 7.046876,3.0625 3.034388,1.157736 6.021397,2.214627 8.820312,3.875 2.344364,1.49187 4.652493,2.74596 7.304688,3.58984 3.265431,0.62969 5.773228,0.93099 8.734374,-0.75781 L 48.730469,101.4375 50.822266,99.777344 53,98 c 2.224922,-1.759333 4.446049,-3.521092 6.648438,-5.308594 L 61.875,90.875 l 2.296875,-1.839844 2.195313,-1.792968 c 2.157834,-1.7486 3.502822,-3.010212 4.859374,-5.445313 0,0 0.775357,-1.14479 0.773438,-1.796875 C 71.98729,75.680535 61.067781,70.349857 41.714844,63.050781 38.772604,61.770028 35.828592,60.493985 32.878906,59.230469 L 30,58 c 0.59427,-3.122275 1.004443,-6.110039 1.132812,-9.289062 L 31.125,45.375 31.1328,42.023438 C 30.60128,29.923247 18.415619,16.636231 9.8789062,8.703125 L 8,7 C 1.6707641,-0.24113973 -6.9528013,-3.9925938 -16.576172,-4.1210938 Z M -22.5,35.1875 c 5.987313,1.389912 9.109645,5.136943 12.9375,9.75 C -7.5817107,48.819847 -7.0956125,50.70416 -8,55 c -1.7681034,1.999694 -3.660905,3.577081 -5.761719,5.222656 -2.857378,2.268948 -5.291031,4.844789 -7.792969,7.492188 C -23,69 -23,69 -25,69 c -1.498775,-1.654836 -2.924885,-3.375905 -4.3125,-5.125 -2.532412,-3.186993 -5.061425,-6.313441 -7.8125,-9.3125 C -39,52 -39,52 -39.125,49.9375 -37.491309,47.123922 -35.377813,45.222738 -33,43 l 1.640625,-1.875 C -28.4584,37.884271 -26.822383,36.19091 -22.5,35.1875 Z"
       transform="translate(1041,916)"
       sodipodi:nodetypes="scccccccccccccccccccccccccccccccccccccccccsccccccccscccccccccccc"
       style="fill:#ea3131;fill-opacity:1" />
    <path
       d="m 2.9453125,12.53125 -3.23828125,2.335938 c -1.18222135,0.861593 -2.36316545,1.724941 -3.54296875,2.589843 l -1.8686523,1.358887 c -1.9513023,1.464103 -3.8284581,2.992646 -5.7016602,4.555176 l -1.874268,1.546386 c -1.197524,0.992304 -2.38655,1.994973 -3.565918,3.00879 -16.8106,13.717607 -4.213851,-15.295963 -30.196533,1.503417 l -1.927734,1.134766 c -5.226918,2.62242 -6.042268,7.074441 -3.236328,12.064453 l 1.976562,2.300781 2.207032,2.597657 c 3.319605,3.727182 6.652467,7.439566 10.03125,11.113281 2.074206,2.260919 4.117003,4.542043 6.136718,6.851562 l 1.671875,1.890625 c 1.074813,1.266364 2.105325,2.571367 3.09375,3.90625 7.643202,10.808654 12.785915,2.04842 17.6093752,-4.359375 13.6318807,-18.412845 -9.4410112,-11.601517 4.1250001,-26.625 l 1.9296874,-2.125 c 2.2243913,-2.367592 4.4955017,-4.668041 6.8203126,-6.9375 L 5.5976562,29.007812 8.0195313,26.554687 10.308594,24.230469 C 21.54558,11.849671 30.41413,32.294434 24.003418,56.617432 21.690168,64.214799 18.105566,70.675887 13.684082,77.273437 10.402049,82.284099 7.3492365,87.446464 4.2265625,92.557373 -14.803557,126.8238 -33.501207,126.92672 -57.605469,98.242187 c -1.933112,-2.274588 -3.872277,-4.543974 -5.8125,-6.8125 l -1.562256,-1.828857 c -4.041147,-4.715409 -8.186641,-9.320037 -12.37915,-13.901611 -20.19062,-22.086783 -20.19062,-22.086783 -19.621094,-37.375 0.894256,-7.349665 4.3365,-11.776005 10,-16.367188 7.580455,-5.473387 15.730213,-9.461236 24.306153,-13.0832517 4.521529,-1.9156015 8.847027,-4.0335999 13.193847,-6.3190918 39.2849,-19.7313305 60.47753,2.3215968 52.4257815,9.9765625 z"
       fill="#dc3523"
       id="path3"
       transform="translate(1148.6055,857.75781)"
       sodipodi:nodetypes="ccccccccccccccccccccccccccccccccccc"
       style="fill:#ea3131;fill-opacity:1" />
    <path
       d="M 7.3242187,3.484375 C 8.1255183,4.5629892 8.9125143,5.6523267 9.6875,6.75 c 0.879792,1.195619 1.760012,2.3909231 2.640625,3.585938 l 1.345703,1.854492 C 15.705825,14.963103 17.824696,17.663343 19.9375,20.375 23.666881,25.218507 27.352857,30.09429 31,35 l 1.421631,1.888184 C 38.818107,45.552404 39.364936,54.493471 38,65 34.966615,78.065485 25.734866,89.384664 18,100 l -1.323242,1.83008 C -9.3386773,137.68862 -9.3386773,137.68862 -29,141 c -6.225843,0.88782 -10.867877,-0.54049 -16,-4 -7.093659,-5.42363 -11.520053,-13.43252 -16,-21 l -1.460937,-2.44922 c -3.64793,-6.99833 -3.973904,-14.977605 -1.621094,-22.476561 C -62.860786,88.279977 -61.502849,85.652787 -60,83 l 1.386719,-2.519531 c 13.506434,-27.584535 16.431623,-17.685768 18.324219,-15.546875 l 1.664062,2.503906 1.839844,2.753906 c 2.127678,3.347485 4.166168,6.739205 6.179687,10.15625 C -24.411456,90.615952 -24.411456,90.615952 -17,100 c 3.39937,0.63901 3.39937,0.63901 7,-1 C -4.3772259,94.039347 1.5737239,87.360342 2.3242188,79.683594 1.939897,75.317143 0.76703357,73.29659 -1.6875,69.6875 L -2.8757324,67.917969 C -7.45018,61.17871 -12.270601,54.602297 -17.082031,48.03125 l -1.51416,-2.097656 c -1.24281,-1.711836 -2.51461,-3.402542 -3.790528,-5.089844 -3.360895,-5.92429 -2.542784,-8.544201 2.949219,-15.65625 l 1.381836,-1.85791 C -16.718956,21.540884 -15.363587,19.768265 -14,18 l 2.011719,-2.628906 c 1.12181,-1.44953 2.2502618,-2.893956 3.3867185,-4.332031 2.1974899,-2.7977803 4.3175898,-5.6510357 6.4375,-8.507813 4.0375932,-6.8054518 6.9747048,-1.73365584 9.4882812,0.953125 z"
       fill="#dc3423"
       id="path4"
       transform="translate(882,1075)"
       sodipodi:nodetypes="cccccccccccccccccccccccccccccccccccc"
       style="fill:#ea3131;fill-opacity:1" />
    <path
       d="M 0,0 C 1.7170312,0.16242188 1.7170312,0.16242188 3.46875,0.328125 6.5,0.75 6.5,0.75 9.5,1.75 c 1.349454,0.088839 2.702344,0.1313729 4.054688,0.140625 1.169824,0.029004 1.169824,0.029004 2.363281,0.058594 1.629962,0.033688 3.260317,0.052071 4.890625,0.054688 4.201494,0.1315129 6.182683,0.373253 9.660156,2.9218749 2.172314,3.0203516 2.95538,5.1312121 3.65625,8.7617191 2.057116,10.352368 7.74523,18.006644 16.28125,24.15625 11.439577,6.958093 20.867652,8.331057 34.054687,7.613281 7.446687,-0.22536 7.446687,-0.22536 10.632813,2.5625 1.121101,2.176805 2.181735,4.251146 3.03125,6.542969 2.30531,5.56649 5.64266,10.463159 9.02197,15.427002 2.04229,3.113052 3.2787,5.357904 3.96241,9.061279 C 110.5,81.75 110.5,81.75 108.33423,83.314453 99.175736,87.953262 88.871871,88.20547 78.8125,88.0625 77.667168,88.0657 76.521836,88.0689 75.341797,88.0723 51.198432,87.920421 30.420412,77.448599 12.910156,61.214844 -2.2753553,45.684766 -9.329229,27.093153 -9.828125,5.640625 -9.5,2.75 -9.5,2.75 -8.390625,0.84375 -5.5157413,-0.81940588 -3.2598425,-0.33773143 0,0 Z"
       fill="#DC3422"
       id="path5"
       transform="translate(772.5,1181.25)"
       style="fill:#ea3131;fill-opacity:1" />
    <path
       d="M 0,0 2.8352051,0.03857422 C 28.578806,0.57036692 49.629009,7.2769084 68.414062,25.46875 85.718053,43.908524 90.066348,67.555795 89.310547,91.925781 88.551079,118.2313 70.708046,96.102169 62.459229,87.769531 60.997077,86.309581 59.527073,84.857853 58.056641,83.40625 46.26986,71.692599 46.26986,71.692599 43.125,63.75 39.017403,54.246149 33.784607,50.768645 24.816406,46.070312 17.171257,42.015866 11.579639,37.052673 6.1875,30.3125 4.2504237,28.542192 2.2618905,26.840549 0.26953125,25.132812 -2.9205973,22.343694 -5.8864742,19.374937 -8.8125,16.3125 l -1.769531,-1.785156 C -21.880095,2.4884212 -12.277614,-0.24464863 0,0 Z"
       fill="#dc3523"
       id="path6"
       transform="translate(1138.8125,800.6875)"
       sodipodi:nodetypes="ccccccccccccc"
       style="fill:#ea3131;fill-opacity:1" />
    <path
       d="M 8.5,5.1875 10.78125,8.1054688 13,11 15.238281,13.691406 C 17,16 17,16 17.6875,18.75 16.405454,24.810581 11.697289,29.046955 7.71875,33.625 L 5.5,36.25 3.40625,38.640625 C 1.7797378,40.89858 1.7797378,40.89858 2.0429688,43.488281 3.2001137,46.525196 4.6986643,48.465645 6.8125,50.9375 l 2.46875,2.914062 C 10.18724,54.901266 11.093499,55.950738 12,57 c 0.948642,1.11136 1.896542,2.223354 2.84375,3.335937 2.512208,2.945564 5.036731,5.880316 7.563965,8.812989 1.655783,1.924892 3.306351,3.854147 4.955566,5.784668 l 1.65503,1.936279 c 1.050161,1.228886 2.099825,2.458197 3.148925,3.687988 C 34.058852,82.768878 39.990063,88.57087 37,92 c -2.265625,2.035156 -2.265625,2.035156 -5.25,4.0625 -5.624384,3.97609 -10.542014,8.3176 -15.383789,13.21509 -3.796099,3.6929 -3.796099,3.6929 -6.4794922,3.83179 C 7.3513263,111.61859 5.739706,109.85059 3.8125,107.625 l -2.3984375,-2.75781 c -3.0185215,-3.58511 -5.9900527,-7.2047 -8.9335937,-10.851565 -1.8662389,-2.268876 -3.7536438,-4.501607 -5.6796878,-6.71875 l -1.656982,-1.90918 c -1.078368,-1.238368 -2.160446,-2.473517 -3.246582,-3.705078 -2.020091,-2.313046 -6.849395,-8.15779 -8.666748,-5.975586 -1.394767,2.599137 -3.048201,4.699279 -4.917969,6.980469 -3.837297,4.721208 -11.980803,19.2815 -18.734375,11.019531 L -52.75,90.8125 -55.109375,87.957031 C -59.894126,80.473444 -58.954193,79.135767 -51.75,70.0625 c 1.306262,-1.70552 2.612249,-3.411252 3.917969,-5.117188 l 1.978027,-2.545898 c 2.53249,-3.277497 4.979677,-6.613048 7.416504,-9.961914 0.88796,-1.212284 1.775982,-2.424523 2.664063,-3.636719 C -28.30335,38.574452 -20.900223,28.303429 -13.625,17.9375 2.1535476,-6.7060167 0.50887344,-5.6656218 8.5,5.1875 Z"
       fill="#dc3523"
       id="path7"
       transform="translate(949,983)"
       sodipodi:nodetypes="cccccccccccccccsccccccccccccccccccccccc"
       style="fill:#ea3131;fill-opacity:1" />
    <path
       d="m 0,0 c 4.9721299,1.4743855 7.5616168,4.0983261 11.152344,7.7265625 1.312997,1.2781715 2.626791,2.5555235 3.941406,3.8320315 0.622778,0.61311 1.245557,1.22622 1.887207,1.85791 2.706971,2.63074 5.551887,5.089271 8.413574,7.54834 2.301494,1.981463 2.301494,1.981463 2.601563,4.457031 -0.355911,3.391034 -1.308754,4.262874 -3.78125,6.554687 -0.725742,0.680625 -1.451485,1.36125 -2.199219,2.0625 -0.759258,0.680625 -1.518516,1.36125 -2.300781,2.0625 -0.728321,0.66 -1.456641,1.32 -2.207032,2 C 9.6289778,45.117964 9.6289778,45.117964 5.4492187,45.042969 0.91518678,43.899975 -1.5441697,42.0302 -5.0351562,39.039062 -6.2511998,38.038655 -7.4686667,37.039975 -8.6875,36.042969 -9.288042,35.546841 -9.888584,35.050713 -10.507324,34.539551 -13.9842,31.727302 -17.637186,29.163614 -21.273437,26.5625 c -2.011719,-1.460938 -2.011719,-1.460938 -3.011719,-2.460938 -0.3125,-2.289062 -0.3125,-2.289062 0,-5 1.6875,-2.210937 1.6875,-2.210937 4,-4.374999 0.818554,-0.773438 1.637109,-1.546875 2.480469,-2.34375 0.831445,-0.752813 1.66289,-1.505625 2.519531,-2.28125 0.738633,-0.670313 1.477265,-1.3406255 2.238281,-2.0312505 1.898218,-1.6873049 3.8041682,-3.3507318 5.7617188,-4.96875 C -6.6934766,2.5214844 -6.1017969,1.9414062 -5.4921875,1.34375 -3.2851563,0.1015625 -3.2851563,0.1015625 0,0 Z"
       fill="#DC3624"
       id="path8"
       transform="translate(978.28516,878.89844)"
       style="fill:#ea3131;fill-opacity:1" />
    <path
       d="M 9.7304688,3.328125 12.1875,6.25 14.667969,9.140625 c 1.480727,1.815565 2.94053,3.648559 4.371093,5.503906 C 25.961221,21.209823 34.588151,26.247126 26,34.875 L 23.492187,37.464844 21,40 c -1.30311,1.469095 -2.596101,2.947281 -3.875,4.4375 C 16.092069,45.632606 15.051137,46.820875 14,48 l -1.257812,1.785156 C 11,51 11,51 7.6210937,51.0625 3.184647,49.760759 1.5329297,47.680173 -0.9375,44 -1.7887034,42.810374 -2.6428988,41.622884 -3.5,40.4375 L -4.765625,38.664062 C -7.0556896,35.576824 -9.6859168,32.803362 -12.308594,30 -17.03042,24.416686 -17.03042,24.416686 -16.945312,20.453125 -15.772182,17.408802 -14.276857,15.94831 -11.875,13.75 1.5973733,-2.0283743 4.0830674,-1.9386691 9.7304688,3.328125 Z"
       fill="#dc3624"
       id="path9"
       transform="translate(1147,973)"
       sodipodi:nodetypes="cccccccccccccccccc"
       style="fill:#ea3131;fill-opacity:1" />
    <path
       d="M 0,0 C 1.9094238,1.4494629 1.9094238,1.4494629 3.7070313,3.4726563 4.3766992,4.2080664 5.0463672,4.9434766 5.7363281,5.7011719 6.7640332,6.8700293 6.7640332,6.8700293 7.8125,8.0625 c 1.356799,1.5152004 2.717463,3.026949 4.082031,4.535156 0.669588,0.740244 1.339175,1.480489 2.029053,2.243164 2.667578,2.773905 5.5441,5.219676 8.534912,7.636963 C 24,24 24,24 24.8125,27.125 23.164438,32.956603 17.747386,36.030829 12.875,39.1875 11.841172,39.86168 10.807344,40.535859 9.7421875,41.230469 8.3848047,42.106387 8.3848047,42.106387 7,43 6.01,43.66 5.02,44.32 4,45 0.03114351,45.595875 -1.5034294,45.359562 -4.7890625,42.980469 -5.7249219,42.058789 -6.6607813,41.137109 -7.625,40.1875 -8.6662293,39.181839 -9.70791,38.176645 -10.75,37.171875 -11.281094,36.650449 -11.812188,36.129023 -12.359375,35.591797 -15.055544,32.975871 -17.843641,30.462111 -20.625,27.9375 -25.656648,23.343352 -25.656648,23.343352 -28,21 c 0.10183,-3.405656 0.747441,-4.736258 3.117188,-7.210937 C -6.384728,-0.72643156 -6.384728,-0.72643156 0,0 Z"
       fill="#DC3625"
       id="path10"
       transform="translate(1024,845)"
       style="fill:#ea3131;fill-opacity:1" />
    <path
       d="m 0,0 c 6.7704577,2.1665465 12.716904,5.3358002 18.8125,8.9375 l 2.259766,1.302734 C 28.692012,14.71964 28.692012,14.71964 31.125,18 c 0.6816,3.391511 0.174997,4.708196 -1.609375,7.683594 L 27.375,28.4375 25.167969,31.332031 23.125,34 c -0.826404,1.198867 -1.642801,2.404886 -2.4375,3.625 C 14.905639,46.256295 5.4587356,39.987611 -0.875,37 -2.3471903,36.656131 -3.827384,36.345379 -5.3125,36.0625 -22.567963,29.859395 -23.860201,29.318926 -13.625,13.375 l 1.449219,-2.234375 C -4.8085937,0 -4.8085937,0 0,0 Z"
       fill="#dc3624"
       id="path11"
       transform="translate(904.875,961)"
       sodipodi:nodetypes="cccccccccccccc"
       style="fill:#ea3131;fill-opacity:1" />
    <path
       d="m 0,0 c 5.0603226,0.93403151 8.5335059,3.7041417 12.65625,6.6796875 0.80373,0.5613867 1.607461,1.1227734 2.435547,1.7011719 5.551663,3.9080486 10.927014,8.0260416 16.251953,12.2363276 0.05862,2.813945 0.0083,4.415505 -1,7 -2.124109,2.201506 -4.404009,4.074661 -6.773438,6.007813 -3.018961,2.701176 -4.42681,5.392683 -6.226562,8.992187 -2,2 -2,2 -4.820312,2.308594 C 8.9243822,44.576487 7.3999559,43.744642 4.46875,41.679687 -0.97732776,37.99889 -6.5884603,34.791237 -12.349121,31.638916 c -5.104581,-2.81918 -5.104581,-2.81918 -7.307129,-5.021729 -0.498,-3.709061 -0.325808,-5.483383 1.6875,-8.675781 0.763125,-0.870117 1.52625,-1.740234 2.3125,-2.636718 0.821133,-0.941016 1.642266,-1.882032 2.488281,-2.851563 1.243301,-1.403789 1.243301,-1.403789 2.511719,-2.8359375 C -9.5831055,8.2752734 -9.5831055,8.2752734 -8.4882813,6.90625 -7.4886133,5.6803516 -7.4886133,5.6803516 -6.46875,4.4296875 -5.8770703,3.6936328 -5.2853906,2.9575781 -4.6757812,2.1992188 -2.65625,0.6171875 -2.65625,0.6171875 0,0 Z"
       fill="#DC3625"
       id="path12"
       transform="translate(937.65625,917.38281)"
       style="fill:#ea3131;fill-opacity:1" />
    <path
       d="M 0,0 C 2.0546875,1.6171875 2.0546875,1.6171875 3.875,3.875 4.5491797,4.6935547 5.2233594,5.5121094 5.9179687,6.3554687 6.6050391,7.2281641 7.2921094,8.1008594 8,9 c 0.6973828,0.8623828 1.3947656,1.724766 2.113281,2.613281 1.363547,1.692236 2.715523,3.393873 4.054688,5.105469 C 15.70849,18.637011 17.31349,20.401224 19,22.1875 21,25 21,25 21.9375,28.3125 20.392992,34.387566 15.806715,37.254342 11,41 10.030625,41.776016 9.06125,42.552031 8.0625,43.351562 0.90534098,48.855573 0.90534098,48.855573 -2.6445313,49.421875 -5,49 -5,49 -6.5546875,47.636719 -7.2082422,46.671855 -7.2082422,46.671855 -7.875,45.6875 -8.3777344,44.956602 -8.8804688,44.225703 -9.3984375,43.472656 -9.9269531,42.65668 -10.455469,41.840703 -11,41 -11.569766,40.132461 -12.139531,39.264922 -12.726563,38.371094 -14.516352,35.599679 -16.259911,32.802828 -18,30 c -0.586523,-0.9075 -1.173047,-1.815 -1.777344,-2.75 -0.821777,-1.299375 -0.821777,-1.299375 -1.660156,-2.625 -0.493711,-0.770859 -0.987422,-1.541719 -1.496094,-2.335938 C -24.208303,19.552873 -24.493886,17.982309 -24,15 c 1.652344,-1.992187 1.652344,-1.992187 3.9375,-3.875 0.819844,-0.678047 1.639688,-1.3560937 2.484375,-2.0546875 C -16.727344,8.3871094 -15.876563,7.7039062 -15,7 -14.211094,6.3167969 -13.422188,5.6335937 -12.609375,4.9296875 -11.851406,4.2928906 -11.093438,3.6560938 -10.3125,3 -9.6280078,2.4225 -8.9435156,1.845 -8.2382813,1.25 -5.2457806,-0.42120457 -3.3775378,-0.48821177 0,0 Z"
       fill="#DC3523"
       id="path13"
       transform="translate(1116,1011)"
       style="fill:#ea3131;fill-opacity:1" />
    <path
       d="m 0,0 c 2.0820313,1.9414062 2.0820313,1.9414062 3.8125,4.5625 0.6561328,0.9848437 1.3122656,1.9696875 1.9882812,2.984375 0.5213453,0.8208105 0.5213453,0.8208105 1.0532227,1.6582031 1.2629355,1.9780789 2.5688903,3.9242189 3.8764651,5.8730469 0.925442,1.409974 1.848639,2.821425 2.769531,4.234375 0.445774,0.669104 0.891548,1.338208 1.35083,2.027588 C 17.340564,25.267618 19.025335,28.21735 18,33 14.403417,36.722533 9.5997745,39.182232 5.125,41.75 4.4430859,42.161211 3.7611719,42.572422 3.0585938,42.996094 -1.5668401,45.648009 -4.6727364,46.472916 -10,46 c -0.268125,-0.487266 -0.53625,-0.974531 -0.8125,-1.476563 -2.719817,-4.920722 -5.473971,-9.821754 -8.25,-14.710937 -0.328066,-0.581528 -0.656133,-1.163057 -0.994141,-1.762207 -1.6236,-2.851022 -3.312539,-5.594931 -5.154296,-8.312012 C -27,17 -27,17 -27.5625,14.375 -26.31415,9.1041869 -19.055158,5.9496769 -14.625,3.1875 -13.990781,2.7679102 -13.356563,2.3483203 -12.703125,1.9160156 -8.1918801,-0.87819425 -5.295337,-1.6995812 0,0 Z"
       fill="#DC3625"
       id="path14"
       transform="translate(1075,1042)"
       style="fill:#ea3131;fill-opacity:1" />
    <path
       d="m 9.5625,12.3125 c 26.555656,45.395422 -18.9493691,-32.306538 5.90625,10.199219 2.341643,4.256772 5.566962,10.781153 0.567064,13.543121 C 8.7881785,40.066738 -2.1837747,44.913166 -7,45 -10.358631,42.97042 -30.658568,12.189791 -24,8 -17.612656,4.7484951 -17.209677,4.6238688 -12.023438,2 -1.2175276,-3.1315732 2.5053057,0.10678577 9.5625,12.3125 Z"
       fill="#dc3625"
       id="path15"
       transform="translate(1028,1065)"
       sodipodi:nodetypes="ccccccc"
       style="fill:#ea3131;fill-opacity:1" />
    <path
       d="m 0,0 c 1.0451671,1.0119203 2.0814766,2.0330424 3.1103516,3.0615234 0.5492413,0.5416278 1.0984826,1.0832557 1.6643676,1.6412964 1.1569135,1.1461232 2.3098903,2.2962319 3.4591675,3.4500122 1.7609954,1.7619686 3.5422193,3.501537 5.3256833,5.240723 1.122393,1.117186 2.24353,2.235635 3.363282,3.355468 0.534296,0.517901 1.068592,1.035802 1.619079,1.569397 2.280311,2.323828 3.623457,3.835821 4.163147,7.093689 -0.454101,2.258789 -0.454101,2.258789 -2.391601,4.321289 -3.861854,2.443214 -7.846781,4.198901 -12.0625004,5.9375 -0.9075,0.4125 -1.815,0.825 -2.75,1.25 -2.7407324,0.913578 -4.3615776,1.116719 -7.25,0.75 -2.212209,-1.535184 -4.0842138,-3.018561 -6.0625,-4.8125 -0.8378504,-0.734644 -0.8378504,-0.734644 -1.692627,-1.48413 -1.7618346,-1.553336 -3.5051536,-3.125327 -5.2448726,-4.70337 -0.573956,-0.517558 -1.147911,-1.035117 -1.739258,-1.568359 -12.179553,-11.001336 -12.179553,-11.001336 -12.885742,-14.744141 0.625,-3.6874996 0.625,-3.6874996 2.132812,-5.1171871 2.111304,-1.3330191 4.253092,-2.4660484 6.492188,-3.5703125 1.040273,-0.5742773 1.040273,-0.5742773 2.101562,-1.16015621 C -12.072472,-3.0306127 -6.1589525,-5.2181533 0,0 Z"
       fill="#DC3625"
       id="path16"
       transform="translate(1071.749,824.3291)"
       style="fill:#ea3131;fill-opacity:1" />
    <path
       d="m 0,0 c 3.1901274,0.90286625 6.2845543,1.9540482 9.4101563,3.0546875 2.3657517,0.7195961 4.6740767,1.3014523 7.0859377,1.828125 0.749831,0.1645972 1.499663,0.3291943 2.272217,0.4987793 1.502869,0.3232201 3.008249,0.6350276 4.516113,0.934082 4.562664,0.9854937 7.674259,2.1629972 11.028076,5.6218262 0.429657,6.874514 -3.675267,13.188332 -7,19 -2.543834,2.543834 -4.191682,2.257948 -7.663574,2.27832 C 18.492395,33.2018 18.492395,33.2018 17.3125,33.1875 16.519565,33.1807 15.726631,33.17397 14.909668,33.16699 9.0656301,33.068038 3.2558007,32.741053 -2.5625,32.1875 c -0.7541016,-0.06155 -1.5082031,-0.123105 -2.2851562,-0.186523 -3.4234839,-0.375711 -5.5603818,-0.848811 -8.3164068,-2.965821 -2.14484,-2.95328 -2.08661,-4.50743 -1.523437,-8.097656 0.910786,-1.69146 1.832441,-3.380338 2.859375,-5.003906 C -10.501491,13.611984 -9.6150204,11.256514 -8.6875,8.75 -5.1986405,-0.12089862 -5.1986405,-0.12089862 0,0 Z"
       fill="#DC3726"
       id="path17"
       transform="translate(780.6875,1137.0625)"
       style="fill:#ea3131;fill-opacity:1" />
    <path
       d="m 0,0 c 4.8799803,0.64878351 7.0558229,3.2364633 10.441406,6.6367187 0.59877,0.5781446 1.197539,1.1562891 1.814453,1.7519532 1.724053,1.6711791 3.426788,3.3612111 5.123047,5.0605471 0.898477,0.895898 1.796953,1.791797 2.722656,2.714843 0.751524,0.754102 1.503047,1.508204 2.277344,2.285157 0.60586,0.585234 1.211719,1.170469 1.835938,1.773437 2.753609,2.865432 4.088097,4.436526 4.476562,8.476563 -1.917711,5.479175 -4.956401,10.038954 -8.3125,14.75 -0.918457,1.403789 -0.918457,1.403789 -1.855469,2.835937 -2.144531,2.164063 -2.144531,2.164063 -5.093749,2.746094 -3.8746332,-0.739206 -5.179408,-2.032623 -7.8632818,-4.894531 -0.8546484,-0.9075 -1.7092968,-1.815 -2.5898437,-2.75 -4.0102791,-4.534932 -7.8467255,-9.186808 -11.5976563,-13.9375 -1.1176171,-1.181426 -1.1176171,-1.181426 -2.2578122,-2.386719 -2.353658,-3.530487 -2.346564,-5.431894 -1.742188,-9.613281 1.209997,-2.661011 2.7601184,-4.987467 4.4375002,-7.3750002 C -7.7627148,7.4464453 -7.3418359,6.8186719 -6.9082031,6.171875 -3.1012634,0.5315131 -3.1012634,0.5315131 0,0 Z"
       fill="#DC3624"
       id="path18"
       transform="translate(1176.6211,932.55078)"
       style="fill:#ea3131;fill-opacity:1" />
    <path
       d="m 0,0 c 5.8153783,2.492305 9.3750742,7.2729691 13,12.3125 3.135228,4.346951 6.944543,7.60932 11.0625,11 1,1 1,1 1.625,3.9375 -0.07517,6.101251 -5.564572,10.096942 -9.625,14.0625 L 13.929688,43.542969 11.9375,45.5 10.179688,47.230469 C 6.8180675,48.948492 4.6174493,48.332719 1.0625,47.3125 -1.1601562,45.011719 -1.1601562,45.011719 -3,42 L -5.0117187,38.730469 C -7.856323,33.681729 -10.460734,28.549992 -12.9375,23.3125 l -1.148438,-2.152344 C -15.329755,18.461415 -15.186756,16.241252 -14.9375,13.3125 l 2,-3 C -8.4911472,4.5250165 -7.8125833,0.83112589 0,0 Z"
       fill="#dc3624"
       id="path19"
       transform="translate(893.9375,1203.6875)"
       sodipodi:nodetypes="cccccccccccccccc"
       style="fill:#ea3131;fill-opacity:1" />
    <path
       d="m 0,0 c 3.4912527,0.44966931 5.1187385,1.7554656 7.8867187,3.9101563 0.9551954,0.7283203 1.9103907,1.4566406 2.8945313,2.2070312 0.96293,0.7360547 1.925859,1.4721094 2.917969,2.2304688 1.784835,1.2597351 3.576115,2.5104097 5.375,3.7499997 1.21623,0.858516 1.21623,0.858516 2.457031,1.734375 1.72171,1.203646 3.471593,2.366972 5.230469,3.515625 2.79648,2.886689 2.796814,5.031823 2.9375,9 -2.253711,4.380062 -5.309055,7.754711 -9,11 -3.714124,0.913309 -4.563664,0.979204 -8,0 C 11.816211,37.10918 10.933203,36.870703 10.023438,36.625 -13.074288,29.558014 -13.074288,29.558014 -17.300781,23.347656 c -0.238507,-6.48585 2.781726,-9.818858 6.9375,-14.3124997 C -9.5366699,8.1060645 -9.5366699,8.1060645 -8.6933594,7.1582031 -2.6553752,0.40123666 -2.6553752,0.40123666 0,0 Z"
       fill="#DC3725"
       id="path20"
       transform="translate(831.30078,1063.6523)"
       style="fill:#ea3131;fill-opacity:1" />
    <path
       d="M 0,0 C 0.845625,0.391875 1.69125,0.78375 2.5625,1.1875 3.438418,1.5877539 3.438418,1.5877539 4.3320312,1.9960937 7.18893,3.3541068 9.9550322,4.8352802 12.691406,6.421875 17.739758,9.3479322 22.733158,11.460502 28.277344,13.292969 30.5625,14.1875 30.5625,14.1875 32.5625,16.1875 c 0,6.492498 -2.822631,10.219925 -7,15 -0.46793,0.564609 -0.935859,1.129219 -1.417969,1.710937 -3.245727,2.644667 -7.63342,1.687695 -11.582031,1.289063 -4.07007,-0.774717 -8.0170265,-1.866126 -12,-3 C -0.68144531,30.862656 -1.9253906,30.537812 -3.2070313,30.203125 -4.4587109,29.867969 -5.7103906,29.532812 -7,29.1875 -8.1562891,28.878125 -9.3125781,28.56875 -10.503906,28.25 -14.88453,26.663409 -14.88453,26.663409 -16.4375,24.1875 c -0.940325,-7.066977 2.973939,-11.561286 7,-17 C -3.9068764,0.30052895 -3.9068764,0.30052895 0,0 Z"
       fill="#DC3726"
       id="path21"
       transform="translate(804.4375,1098.8125)"
       style="fill:#ea3131;fill-opacity:1" />
    <path
       d="m 0,0 c 4.5015991,0.82652312 6.0714789,2.350117 9.2617188,5.59375 1.0280552,1.012399 2.0607372,2.0201182 3.0976562,3.0234375 0.52481,0.5088574 1.049619,1.0177148 1.590332,1.5419925 3.495475,3.221258 7.38437,5.931718 11.226074,8.719726 2.398438,1.777344 2.398438,1.777344 4.398438,3.777344 -0.62863,8.186154 -7.516768,15.629171 -12.445313,21.855469 -1.554687,1.144531 -1.554687,1.144531 -3.964843,1.5625 C 5.2149402,44.791329 -1.8930475,32.819537 -6.4257812,26.65625 c -3.1369099,-4.505908 -4.7244538,-8.4539 -4.9999998,-14 1.40625,-3.3085937 1.40625,-3.3085937 3.4999998,-6.4375 0.6703124,-1.0505859 1.340625,-2.1011719 2.03125,-3.1835937 C -3.4257813,0.65625 -3.4257813,0.65625 0,0 Z"
       fill="#DC3624"
       id="path22"
       transform="translate(916.42578,1171.3438)"
       style="fill:#ea3131;fill-opacity:1" />
    <path
       d="m 0,0 c 5.036746,0.12659685 8.3695418,3.1825466 12.1875,6.125 1.330041,1.0022154 2.660773,2.0035161 3.992187,3.0039063 0.648077,0.4900048 1.296153,0.9800097 1.963868,1.4848637 3.269362,2.441272 6.635449,4.74069 10.000976,7.046386 C 30,19 30,19 32,21 c -0.316825,4.492584 -1.689768,7.789959 -3.875,11.6875 -0.513047,0.931992 -1.026094,1.863984 -1.554688,2.824219 C 24.033654,39.53125 24.033654,39.53125 22,41 18.384844,41.745202 17.088823,41.056524 13.949219,39.058594 12.851509,38.198087 11.764634,37.323627 10.6875,36.4375 10.116445,35.980769 9.5453906,35.524038 8.9570313,35.053467 7.293815,33.715039 5.6459178,32.359604 4,31 3.1917578,30.347734 2.3835156,29.695469 1.5507812,29.023437 -8.4863024,20.649642 -8.4863024,20.649642 -9.3359375,14.613281 -8.9038042,11.251686 -7.6340061,9.5226083 -5.625,6.8125 -4.9985156,5.9526953 -4.3720312,5.0928906 -3.7265625,4.2070312 -2,2 -2,2 0,0 Z"
       fill="#DC3726"
       id="path23"
       transform="translate(934,1138)"
       style="fill:#ea3131;fill-opacity:1" />
    <path
       d="m 0,0 c 2.8514503,-0.24021339 4.4762826,-0.34859501 6.8987732,1.263855 0.5959195,0.5919415 1.191839,1.183883 1.8058166,1.7937622 1.0253335,1.0016922 1.0253335,1.0016922 2.0713802,2.0236206 0.72104,0.7311603 1.442079,1.4623205 2.184968,2.2156372 0.749962,0.7451788 1.499924,1.4903577 2.272613,2.2581177 1.581138,1.5777363 3.155984,3.1618013 4.724945,4.7516483 2.410909,2.437702 4.847341,4.847575 7.287598,7.255859 1.531554,1.534857 3.061556,3.071265 4.589843,4.609375 0.733185,0.723063 1.46637,1.446127 2.221772,2.191101 0.664642,0.680404 1.329285,1.360807 2.014068,2.061829 0.591146,0.595124 1.182292,1.190247 1.791352,1.803405 C 39,34 39,34 38.683014,36.22345 38.457619,36.809711 38.232225,37.395973 38,38 35.947754,38.417236 35.947754,38.417236 33,38 30.329759,36.062048 28.117884,33.697769 25.835937,31.324219 25.16205,30.643256 24.488162,29.962294 23.793854,29.260696 21.64222,27.081085 19.508591,24.884762 17.375,22.6875 15.930845,21.218262 14.485545,19.750149 13.039063,18.283203 9.8500083,15.04501 6.6722321,11.796205 3.5039978,8.5376434 2.4625653,7.4729132 1.3868922,6.4410188 0.2862854,5.4375763 -0.13818878,4.9631761 -0.56266296,4.4887759 -1,4 -0.6875,1.8125 -0.6875,1.8125 0,0 Z"
       fill="#DE4131"
       id="path25"
       transform="translate(1108,805)"
       style="fill:#ea3131;fill-opacity:1" />
    <path
       d="m 0,0 c 2.9147889,1.3209481 5.0183592,2.756763 7.2998047,4.9934082 0.6203412,0.6043538 1.2406824,1.2087076 1.8798218,1.8313751 0.657442,0.6520793 1.3148845,1.3041587 1.9922485,1.975998 0.682418,0.6733891 1.364835,1.3467787 2.067932,2.0405727 1.438245,1.423758 2.873712,2.850327 4.30658,4.279496 2.197449,2.185519 4.412853,4.35169 6.629394,6.517822 1.395678,1.386217 2.790247,2.77355 4.183594,4.162109 0.665539,0.646007 1.331078,1.292013 2.016785,1.957596 4.530109,4.575413 4.530109,4.575413 5.038879,8.191574 C 35.278076,36.626467 35.141113,37.302983 35,38 c -1.788025,0.670547 -1.788025,0.670547 -4,1 -1.695862,-1.054214 -1.695862,-1.054214 -3.391602,-2.72876 -0.960542,-0.93206 -0.960542,-0.93206 -1.94049,-1.88295 -0.679316,-0.686299 -1.358632,-1.372599 -2.058533,-2.079696 -0.704614,-0.697459 -1.409227,-1.394917 -2.135193,-2.11351 -1.488851,-1.481058 -2.971302,-2.968572 -4.447815,-4.46193 -2.262411,-2.28158 -4.552494,-4.532409 -6.846679,-6.781982 C 8.7378096,17.509584 7.2976467,16.066279 5.859375,14.621094 5.1719623,13.948963 4.4845496,13.276833 3.7763062,12.584335 -0.88376233,7.8078287 -0.88376233,7.8078287 -1.4912109,3.5861816 -1,1 -1,1 0,0 Z"
       fill="#DE4030"
       id="path26"
       transform="translate(1188,882)"
       style="fill:#ea3131;fill-opacity:1" />
    <path
       d="M 0,0 C 4.4607222,-0.35144107 4.4607222,-0.35144107 6.8228455,1.1879272 7.3832352,1.744339 7.9436249,2.3007507 8.5209961,2.8740234 9.1645102,3.5017767 9.8080243,4.12953 10.471039,4.7763061 c 1.015937,1.0311191 1.015937,1.0311191 2.052399,2.0830689 0.70557,0.7007867 1.41114,1.4015735 2.138092,2.1235962 1.486981,1.4835808 2.967673,2.9734868 4.442474,4.4691768 2.266076,2.292873 4.557606,4.557838 6.853027,6.821289 1.440409,1.443712 2.879266,2.888974 4.316406,4.335938 0.689437,0.679316 1.378874,1.358632 2.089203,2.058533 0.624602,0.640362 1.249203,1.280724 1.892731,1.94049 0.555616,0.559595 1.111232,1.119189 1.683685,1.69574 C 37,32 37,32 36.671539,34.211975 36.449931,34.802023 36.228323,35.392072 36,36 31.539278,36.351441 31.539278,36.351441 29.177155,34.812073 28.33657,33.977455 28.33657,33.977455 27.479004,33.125977 26.83549,32.498223 26.191976,31.87047 25.528961,31.223694 24.513024,30.192575 24.513024,30.192575 23.476562,29.140625 22.770992,28.439838 22.065422,27.739052 21.33847,27.017029 19.851489,25.533448 18.370797,24.043542 16.895996,22.547852 14.62992,20.254979 12.33839,17.990014 10.042969,15.726563 8.6025604,14.282851 7.1637034,12.837589 5.7265625,11.390625 5.0371255,10.711309 4.3476886,10.031993 3.6373596,9.3320923 3.0127585,8.6917304 2.3881574,8.0513684 1.7446289,7.3916016 1.1890128,6.8320074 0.63339661,6.2724133 0.0609436,5.6958618 -1,4 -1,4 -0.67153931,1.7880249 -0.44993134,1.1979767 -0.22832336,0.60792847 0,0 Z"
       fill="#DE4332"
       id="path27"
       transform="translate(1096,808)"
       style="fill:#ea3131;fill-opacity:1" />
    <path
       d="m 0,0 c 3.2258465,0.45802403 4.91523,1.5268688 7.2238769,3.7722168 0.9053222,0.8717713 0.9053222,0.8717713 1.8289338,1.7611542 0.6387053,0.6322297 1.2774103,1.2644595 1.9354703,1.9158477 0.662593,0.6502364 1.325187,1.3004728 2.007859,1.9704133 1.396677,1.377121 2.789232,2.758435 4.177932,4.1436 2.13085,2.11674 4.286874,4.205384 6.445069,6.29419 1.353847,1.341452 2.706116,2.684499 4.05664,4.029297 0.97324,0.933163 0.97324,0.933163 1.966141,1.885177 C 31.302241,27.458074 32.755121,28.987184 34,31 c -0.104736,3.44458 -0.104736,3.44458 -1,6 -4,0 -4,0 -5.605469,-1.46875 C 26.872461,34.860937 26.350391,34.190625 25.8125,33.5 23.230276,30.359308 20.585432,27.649162 17.5,25 13.89392,21.876768 10.766541,18.599528 7.7070312,14.945313 5.9337194,12.924467 4.0343507,11.138141 2.0625,9.3125 -0.93325911,6.3837601 -0.93325911,6.3837601 -1.5,3.125 -1,1 -1,1 0,0 Z"
       fill="#DE4231"
       id="path28"
       transform="translate(1186,896)"
       style="fill:#ea3131;fill-opacity:1" />
    <path
       d="m 0,0 c 4.3451078,1.68636 7.2585073,4.8990362 10.515625,8.109375 0.923744,0.906644 0.923744,0.906644 1.86615,1.831604 1.29709,1.278233 2.591322,2.559372 3.882873,3.843201 1.978583,1.959117 3.977451,3.895883 5.977539,5.833007 1.259127,1.24607 2.516983,2.493425 3.773438,3.742188 0.599918,0.575224 1.199835,1.150448 1.817932,1.743103 2.872764,2.904248 4.082261,4.128895 4.540466,8.312561 C 32.250596,34.268076 32.127168,35.121113 32,36 27.671215,35.498633 25.761702,34.242957 22.75,31.140625 21.589844,29.961133 21.589844,29.961133 20.40625,28.757812 19.612187,27.930234 18.818125,27.102656 18,26.25 17.205937,25.437891 16.411875,24.625781 15.59375,23.789062 14.061244,22.220798 12.532667,20.64868 11.008545,19.072266 9.3905658,17.402956 7.7614897,15.748674 6.1132812,14.109375 -0.84477612,7.1641791 -0.84477612,7.1641791 -1.375,3.1875 -1,1 -1,1 0,0 Z"
       fill="#DE402F"
       id="path29"
       transform="translate(1183,908)"
       style="fill:#ea3131;fill-opacity:1" />
    <path
       d="m 0,0 c 2.7226563,-0.2890625 2.7226563,-0.2890625 6,0 2.3085938,1.9765625 2.3085938,1.9765625 4.4375,4.625 2.592454,3.0918378 5.048458,5.960551 8.1875,8.5 3.272107,2.668954 5.883887,5.697351 8.597656,8.921875 2.270979,2.495581 4.794043,4.515054 7.492188,6.53125 C 36,30 36,30 36,34 33.954346,34.908936 33.954346,34.908936 31,35 28.236172,33.180362 26.030199,30.821703 23.730469,28.457031 23.049466,27.777026 22.368463,27.09702 21.666824,26.396408 20.230049,24.95495 18.800659,23.506099 17.378174,22.050537 15.195828,19.821008 12.988069,17.619308 10.775391,15.419922 9.3838248,14.017202 7.9937971,12.612955 6.6054687,11.207031 5.9430669,10.546452 5.280665,9.8858731 4.5981903,9.2052765 3.9936855,8.5817076 3.3891806,7.9581387 2.7663574,7.3156738 2.2307268,6.7708284 1.6950961,6.225983 1.1432342,5.6646271 0,4 0,4 0,0 Z"
       fill="#DD3D2C"
       id="path30"
       transform="translate(1084,812)"
       style="fill:#ea3131;fill-opacity:1" />
    <path
       d="m 0,0 c 5.200496,0.33610087 7.9082865,3.3112646 11.394531,6.828125 0.888328,0.8790298 0.888328,0.8790298 1.794602,1.7758179 1.246239,1.2391495 2.487382,2.4834431 3.723709,3.7324831 1.894991,1.908873 3.812759,3.792518 5.733642,5.675293 1.209135,1.208183 2.416867,2.417773 3.623047,3.628906 0.574907,0.561649 1.149814,1.123297 1.742142,1.701965 2.444945,2.503377 3.909175,4.017071 4.346481,7.554871 C 32.239963,31.591299 32.121772,32.285137 32,33 30.375488,33.842773 30.375488,33.842773 28,34 25.781135,32.242033 23.938675,30.543556 21.992187,28.515625 21.425493,27.944228 20.858799,27.372831 20.274933,26.784119 18.46298,24.950778 16.669364,23.100542 14.875,21.25 13.658649,20.017146 12.441213,18.785361 11.222656,17.554687 0.0566801,6.2186222 0.0566801,6.2186222 -0.125,2.3125 -0.08375,1.549375 -0.0425,0.78625 0,0 Z"
       fill="#DE3F2E"
       id="path31"
       transform="translate(1178,920)"
       style="fill:#ea3131;fill-opacity:1" />
    <path
       d="m 0,0 c 4.9275583,0.42236214 6.6459329,2.5326531 10,6 1.783861,1.612842 3.575727,3.2168696 5.375,4.8125 3.998157,3.606391 7.596626,7.307848 11.054687,11.425781 C 28.727555,24.816238 31.281182,26.877996 34,29 c -0.33,1.65 -0.66,3.3 -1,5 -2.240723,0.271973 -2.240723,0.271973 -5,0 -2.083496,-1.822754 -2.083496,-1.822754 -4.148438,-4.351563 -3.236654,-3.808539 -6.53917,-7.392038 -10.140624,-10.859375 -0.877852,-0.85207 -1.755704,-1.70414 -2.660157,-2.582031 C 9.2349732,14.454843 7.411782,12.71028 5.5820312,10.972656 4.7170703,10.12832 3.8521094,9.2839844 2.9609375,8.4140625 2.1750928,7.6607666 1.389248,6.9074707 0.57958984,6.1313477 -1,4 -1,4 -0.74755859,1.7241211 -0.50086426,1.1551611 -0.25416992,0.58620117 0,0 Z"
       fill="#DD3D2C"
       id="path32"
       transform="translate(1074,816)"
       style="fill:#ea3131;fill-opacity:1" />
  </g>
</svg>
